<svg width="512" height="512" viewBox="0 0 512 512" fill="none" xmlns="http://www.w3.org/2000/svg">
  <rect width="512" height="512" rx="64" fill="#3b82f6"/>
  <rect x="48" y="48" width="416" height="416" rx="32" fill="white"/>
  
  <!-- Book Icon -->
  <path d="M128 160h256v224H128V160z" fill="#3b82f6"/>
  <path d="M128 160h256v24H128v-24z" fill="#1e40af"/>
  <path d="M256 160v224" stroke="#1e40af" stroke-width="4"/>
  
  <!-- Additional book details -->
  <rect x="144" y="192" width="112" height="4" fill="#e5e7eb"/>
  <rect x="144" y="208" width="96" height="4" fill="#e5e7eb"/>
  <rect x="144" y="224" width="104" height="4" fill="#e5e7eb"/>
  <rect x="144" y="240" width="88" height="4" fill="#e5e7eb"/>
  
  <rect x="272" y="192" width="112" height="4" fill="#e5e7eb"/>
  <rect x="272" y="208" width="96" height="4" fill="#e5e7eb"/>
  <rect x="272" y="224" width="104" height="4" fill="#e5e7eb"/>
  <rect x="272" y="240" width="88" height="4" fill="#e5e7eb"/>
  
  <!-- UPSC Text -->
  <text x="256" y="120" text-anchor="middle" fill="white" font-family="Arial, sans-serif" font-size="48" font-weight="bold">UPSC</text>
  <text x="256" y="440" text-anchor="middle" fill="white" font-family="Arial, sans-serif" font-size="32">Dashboard</text>
</svg>
